# xmcd CD database file
#
# Track frame offsets:
#	182
#	17147
#	30437
#	46522
#	58342
#	69365
#	86942
#	98052
#	106860
#	124440
#	138035
#	150030
#	166152
#	180057
#	195122
#	209067
#	224352
#	239097
#	250945
#	264300
#	277212
#	289215
#	297535
#	312705
#
# Disc length: 4353 seconds
#
# Revision: 0
# Processed by: cddbd v1.5PL3 Copyright (c) Steve Scherf et al.
# Submitted via: CDex 1.51
#
DISCID=5f10ff18
DTITLE=Sidney Bechet - Nuages
DYEAR=1993
DGENRE=Jazz
TTITLE0=Préface au ballet
TTITLE1=Ouverture
TTITLE2=Arrivée du somnambule et du noir
TTITLE3=La mère par un autre moyen
TTITLE4=La danse du noir
TTITLE5=La fiancée embellit le grenier
TTITLE6=Le somnambule danse avec la fiancée morte
TTITLE7=Final
TTITLE8=Nuages
TTITLE9=Big chief
TTITLE10=La complainte des infidèles
TTITLE11=Jacqueline
TTITLE12=Pleure pas Nelly
TTITLE13=Elisabeth
TTITLE14=La cane de Jeanne
TTITLE15=Brave Margot
TTITLE16=Le chant des canons
TTITLE17=La complainte de Mackie
TTITLE18=Some sweet day
TTITLE19=When I grow too old to dream
TTITLE20=Leilie
TTITLE21=Chante, chante
TTITLE22=Temperamental
TTITLE23=Rose de Picardie
EXTD=YEAR: 1993
EXTT0=
EXTT1=
EXTT2=
EXTT3=
EXTT4=
EXTT5=
EXTT6=
EXTT7=
EXTT8=
EXTT9=
EXTT10=
EXTT11=
EXTT12=
EXTT13=
EXTT14=
EXTT15=
EXTT16=
EXTT17=
EXTT18=
EXTT19=
EXTT20=
EXTT21=
EXTT22=
EXTT23=
PLAYORDER=
